<mxfile host="app.diagrams.net" modified="2021-05-27T02:11:49.512Z" agent="5.0 (Windows NT 10.0; Win64; x64) AppleWebKit/537.36 (KHTML, like Gecko) Chrome/90.0.4430.93 Safari/537.36 OPR/76.0.4017.123" etag="8PhualHxDvUyEQaODk60" version="14.7.2" type="github">
  <diagram id="mGo43duJM6nGTCHVuUuD" name="Page-1">
    <mxGraphModel dx="1354" dy="594" grid="1" gridSize="10" guides="1" tooltips="1" connect="1" arrows="1" fold="1" page="1" pageScale="1" pageWidth="827" pageHeight="1169" math="0" shadow="0">
      <root>
        <mxCell id="0" />
        <mxCell id="1" parent="0" />
        <mxCell id="Kvx0y5qpQ8pPeSfQFmkm-1" value="Department" style="shape=table;startSize=30;container=1;collapsible=1;childLayout=tableLayout;fixedRows=1;rowLines=0;fontStyle=1;align=center;resizeLast=1;" vertex="1" parent="1">
          <mxGeometry x="94" y="440" width="180" height="130" as="geometry" />
        </mxCell>
        <mxCell id="Kvx0y5qpQ8pPeSfQFmkm-2" value="" style="shape=partialRectangle;collapsible=0;dropTarget=0;pointerEvents=0;fillColor=none;top=0;left=0;bottom=1;right=0;points=[[0,0.5],[1,0.5]];portConstraint=eastwest;" vertex="1" parent="Kvx0y5qpQ8pPeSfQFmkm-1">
          <mxGeometry y="30" width="180" height="30" as="geometry" />
        </mxCell>
        <mxCell id="Kvx0y5qpQ8pPeSfQFmkm-3" value="PK" style="shape=partialRectangle;connectable=0;fillColor=none;top=0;left=0;bottom=0;right=0;fontStyle=1;overflow=hidden;" vertex="1" parent="Kvx0y5qpQ8pPeSfQFmkm-2">
          <mxGeometry width="30" height="30" as="geometry" />
        </mxCell>
        <mxCell id="Kvx0y5qpQ8pPeSfQFmkm-4" value="depId" style="shape=partialRectangle;connectable=0;fillColor=none;top=0;left=0;bottom=0;right=0;align=left;spacingLeft=6;fontStyle=5;overflow=hidden;" vertex="1" parent="Kvx0y5qpQ8pPeSfQFmkm-2">
          <mxGeometry x="30" width="150" height="30" as="geometry" />
        </mxCell>
        <mxCell id="Kvx0y5qpQ8pPeSfQFmkm-5" value="" style="shape=partialRectangle;collapsible=0;dropTarget=0;pointerEvents=0;fillColor=none;top=0;left=0;bottom=0;right=0;points=[[0,0.5],[1,0.5]];portConstraint=eastwest;" vertex="1" parent="Kvx0y5qpQ8pPeSfQFmkm-1">
          <mxGeometry y="60" width="180" height="30" as="geometry" />
        </mxCell>
        <mxCell id="Kvx0y5qpQ8pPeSfQFmkm-6" value="" style="shape=partialRectangle;connectable=0;fillColor=none;top=0;left=0;bottom=0;right=0;editable=1;overflow=hidden;" vertex="1" parent="Kvx0y5qpQ8pPeSfQFmkm-5">
          <mxGeometry width="30" height="30" as="geometry" />
        </mxCell>
        <mxCell id="Kvx0y5qpQ8pPeSfQFmkm-7" value="name" style="shape=partialRectangle;connectable=0;fillColor=none;top=0;left=0;bottom=0;right=0;align=left;spacingLeft=6;overflow=hidden;" vertex="1" parent="Kvx0y5qpQ8pPeSfQFmkm-5">
          <mxGeometry x="30" width="150" height="30" as="geometry" />
        </mxCell>
        <mxCell id="Kvx0y5qpQ8pPeSfQFmkm-8" value="" style="shape=partialRectangle;collapsible=0;dropTarget=0;pointerEvents=0;fillColor=none;top=0;left=0;bottom=0;right=0;points=[[0,0.5],[1,0.5]];portConstraint=eastwest;" vertex="1" parent="Kvx0y5qpQ8pPeSfQFmkm-1">
          <mxGeometry y="90" width="180" height="30" as="geometry" />
        </mxCell>
        <mxCell id="Kvx0y5qpQ8pPeSfQFmkm-9" value="" style="shape=partialRectangle;connectable=0;fillColor=none;top=0;left=0;bottom=0;right=0;editable=1;overflow=hidden;" vertex="1" parent="Kvx0y5qpQ8pPeSfQFmkm-8">
          <mxGeometry width="30" height="30" as="geometry" />
        </mxCell>
        <mxCell id="Kvx0y5qpQ8pPeSfQFmkm-10" value="phone" style="shape=partialRectangle;connectable=0;fillColor=none;top=0;left=0;bottom=0;right=0;align=left;spacingLeft=6;overflow=hidden;" vertex="1" parent="Kvx0y5qpQ8pPeSfQFmkm-8">
          <mxGeometry x="30" width="150" height="30" as="geometry" />
        </mxCell>
        <mxCell id="Kvx0y5qpQ8pPeSfQFmkm-14" value="EmployeeSkill" style="shape=table;startSize=30;container=1;collapsible=1;childLayout=tableLayout;fixedRows=1;rowLines=0;fontStyle=1;align=center;resizeLast=1;" vertex="1" parent="1">
          <mxGeometry x="344" y="195" width="180" height="130" as="geometry" />
        </mxCell>
        <mxCell id="Kvx0y5qpQ8pPeSfQFmkm-15" value="" style="shape=partialRectangle;collapsible=0;dropTarget=0;pointerEvents=0;fillColor=none;top=0;left=0;bottom=0;right=0;points=[[0,0.5],[1,0.5]];portConstraint=eastwest;" vertex="1" parent="Kvx0y5qpQ8pPeSfQFmkm-14">
          <mxGeometry y="30" width="180" height="30" as="geometry" />
        </mxCell>
        <mxCell id="Kvx0y5qpQ8pPeSfQFmkm-16" value="PK,FK1" style="shape=partialRectangle;connectable=0;fillColor=none;top=0;left=0;bottom=0;right=0;fontStyle=1;overflow=hidden;" vertex="1" parent="Kvx0y5qpQ8pPeSfQFmkm-15">
          <mxGeometry width="60" height="30" as="geometry" />
        </mxCell>
        <mxCell id="Kvx0y5qpQ8pPeSfQFmkm-17" value="empId" style="shape=partialRectangle;connectable=0;fillColor=none;top=0;left=0;bottom=0;right=0;align=left;spacingLeft=6;fontStyle=5;overflow=hidden;" vertex="1" parent="Kvx0y5qpQ8pPeSfQFmkm-15">
          <mxGeometry x="60" width="120" height="30" as="geometry" />
        </mxCell>
        <mxCell id="Kvx0y5qpQ8pPeSfQFmkm-18" value="" style="shape=partialRectangle;collapsible=0;dropTarget=0;pointerEvents=0;fillColor=none;top=0;left=0;bottom=1;right=0;points=[[0,0.5],[1,0.5]];portConstraint=eastwest;" vertex="1" parent="Kvx0y5qpQ8pPeSfQFmkm-14">
          <mxGeometry y="60" width="180" height="30" as="geometry" />
        </mxCell>
        <mxCell id="Kvx0y5qpQ8pPeSfQFmkm-19" value="PK,FK2" style="shape=partialRectangle;connectable=0;fillColor=none;top=0;left=0;bottom=0;right=0;fontStyle=1;overflow=hidden;" vertex="1" parent="Kvx0y5qpQ8pPeSfQFmkm-18">
          <mxGeometry width="60" height="30" as="geometry" />
        </mxCell>
        <mxCell id="Kvx0y5qpQ8pPeSfQFmkm-20" value="skillId" style="shape=partialRectangle;connectable=0;fillColor=none;top=0;left=0;bottom=0;right=0;align=left;spacingLeft=6;fontStyle=5;overflow=hidden;" vertex="1" parent="Kvx0y5qpQ8pPeSfQFmkm-18">
          <mxGeometry x="60" width="120" height="30" as="geometry" />
        </mxCell>
        <mxCell id="Kvx0y5qpQ8pPeSfQFmkm-21" value="" style="shape=partialRectangle;collapsible=0;dropTarget=0;pointerEvents=0;fillColor=none;top=0;left=0;bottom=0;right=0;points=[[0,0.5],[1,0.5]];portConstraint=eastwest;" vertex="1" parent="Kvx0y5qpQ8pPeSfQFmkm-14">
          <mxGeometry y="90" width="180" height="30" as="geometry" />
        </mxCell>
        <mxCell id="Kvx0y5qpQ8pPeSfQFmkm-22" value="" style="shape=partialRectangle;connectable=0;fillColor=none;top=0;left=0;bottom=0;right=0;editable=1;overflow=hidden;" vertex="1" parent="Kvx0y5qpQ8pPeSfQFmkm-21">
          <mxGeometry width="60" height="30" as="geometry" />
        </mxCell>
        <mxCell id="Kvx0y5qpQ8pPeSfQFmkm-23" value="SkillLevel" style="shape=partialRectangle;connectable=0;fillColor=none;top=0;left=0;bottom=0;right=0;align=left;spacingLeft=6;overflow=hidden;" vertex="1" parent="Kvx0y5qpQ8pPeSfQFmkm-21">
          <mxGeometry x="60" width="120" height="30" as="geometry" />
        </mxCell>
        <mxCell id="Kvx0y5qpQ8pPeSfQFmkm-52" value="Employee" style="shape=table;startSize=30;container=1;collapsible=1;childLayout=tableLayout;fixedRows=1;rowLines=0;fontStyle=1;align=center;resizeLast=1;" vertex="1" parent="1">
          <mxGeometry x="94" y="190" width="180" height="190" as="geometry" />
        </mxCell>
        <mxCell id="Kvx0y5qpQ8pPeSfQFmkm-53" value="" style="shape=partialRectangle;collapsible=0;dropTarget=0;pointerEvents=0;fillColor=none;top=0;left=0;bottom=1;right=0;points=[[0,0.5],[1,0.5]];portConstraint=eastwest;" vertex="1" parent="Kvx0y5qpQ8pPeSfQFmkm-52">
          <mxGeometry y="30" width="180" height="30" as="geometry" />
        </mxCell>
        <mxCell id="Kvx0y5qpQ8pPeSfQFmkm-54" value="PK" style="shape=partialRectangle;connectable=0;fillColor=none;top=0;left=0;bottom=0;right=0;fontStyle=1;overflow=hidden;" vertex="1" parent="Kvx0y5qpQ8pPeSfQFmkm-53">
          <mxGeometry width="30" height="30" as="geometry" />
        </mxCell>
        <mxCell id="Kvx0y5qpQ8pPeSfQFmkm-55" value="empId" style="shape=partialRectangle;connectable=0;fillColor=none;top=0;left=0;bottom=0;right=0;align=left;spacingLeft=6;fontStyle=5;overflow=hidden;" vertex="1" parent="Kvx0y5qpQ8pPeSfQFmkm-53">
          <mxGeometry x="30" width="150" height="30" as="geometry" />
        </mxCell>
        <mxCell id="Kvx0y5qpQ8pPeSfQFmkm-56" value="" style="shape=partialRectangle;collapsible=0;dropTarget=0;pointerEvents=0;fillColor=none;top=0;left=0;bottom=0;right=0;points=[[0,0.5],[1,0.5]];portConstraint=eastwest;" vertex="1" parent="Kvx0y5qpQ8pPeSfQFmkm-52">
          <mxGeometry y="60" width="180" height="30" as="geometry" />
        </mxCell>
        <mxCell id="Kvx0y5qpQ8pPeSfQFmkm-57" value="" style="shape=partialRectangle;connectable=0;fillColor=none;top=0;left=0;bottom=0;right=0;editable=1;overflow=hidden;" vertex="1" parent="Kvx0y5qpQ8pPeSfQFmkm-56">
          <mxGeometry width="30" height="30" as="geometry" />
        </mxCell>
        <mxCell id="Kvx0y5qpQ8pPeSfQFmkm-58" value="firstName" style="shape=partialRectangle;connectable=0;fillColor=none;top=0;left=0;bottom=0;right=0;align=left;spacingLeft=6;overflow=hidden;" vertex="1" parent="Kvx0y5qpQ8pPeSfQFmkm-56">
          <mxGeometry x="30" width="150" height="30" as="geometry" />
        </mxCell>
        <mxCell id="Kvx0y5qpQ8pPeSfQFmkm-59" value="" style="shape=partialRectangle;collapsible=0;dropTarget=0;pointerEvents=0;fillColor=none;top=0;left=0;bottom=0;right=0;points=[[0,0.5],[1,0.5]];portConstraint=eastwest;" vertex="1" parent="Kvx0y5qpQ8pPeSfQFmkm-52">
          <mxGeometry y="90" width="180" height="30" as="geometry" />
        </mxCell>
        <mxCell id="Kvx0y5qpQ8pPeSfQFmkm-60" value="" style="shape=partialRectangle;connectable=0;fillColor=none;top=0;left=0;bottom=0;right=0;editable=1;overflow=hidden;" vertex="1" parent="Kvx0y5qpQ8pPeSfQFmkm-59">
          <mxGeometry width="30" height="30" as="geometry" />
        </mxCell>
        <mxCell id="Kvx0y5qpQ8pPeSfQFmkm-61" value="lastName" style="shape=partialRectangle;connectable=0;fillColor=none;top=0;left=0;bottom=0;right=0;align=left;spacingLeft=6;overflow=hidden;" vertex="1" parent="Kvx0y5qpQ8pPeSfQFmkm-59">
          <mxGeometry x="30" width="150" height="30" as="geometry" />
        </mxCell>
        <mxCell id="Kvx0y5qpQ8pPeSfQFmkm-62" value="" style="shape=partialRectangle;collapsible=0;dropTarget=0;pointerEvents=0;fillColor=none;top=0;left=0;bottom=0;right=0;points=[[0,0.5],[1,0.5]];portConstraint=eastwest;" vertex="1" parent="Kvx0y5qpQ8pPeSfQFmkm-52">
          <mxGeometry y="120" width="180" height="30" as="geometry" />
        </mxCell>
        <mxCell id="Kvx0y5qpQ8pPeSfQFmkm-63" value="" style="shape=partialRectangle;connectable=0;fillColor=none;top=0;left=0;bottom=0;right=0;editable=1;overflow=hidden;" vertex="1" parent="Kvx0y5qpQ8pPeSfQFmkm-62">
          <mxGeometry width="30" height="30" as="geometry" />
        </mxCell>
        <mxCell id="Kvx0y5qpQ8pPeSfQFmkm-64" value="email" style="shape=partialRectangle;connectable=0;fillColor=none;top=0;left=0;bottom=0;right=0;align=left;spacingLeft=6;overflow=hidden;" vertex="1" parent="Kvx0y5qpQ8pPeSfQFmkm-62">
          <mxGeometry x="30" width="150" height="30" as="geometry" />
        </mxCell>
        <mxCell id="Kvx0y5qpQ8pPeSfQFmkm-78" value="" style="shape=partialRectangle;collapsible=0;dropTarget=0;pointerEvents=0;fillColor=none;top=0;left=0;bottom=0;right=0;points=[[0,0.5],[1,0.5]];portConstraint=eastwest;" vertex="1" parent="Kvx0y5qpQ8pPeSfQFmkm-52">
          <mxGeometry y="150" width="180" height="30" as="geometry" />
        </mxCell>
        <mxCell id="Kvx0y5qpQ8pPeSfQFmkm-79" value="FK" style="shape=partialRectangle;connectable=0;fillColor=none;top=0;left=0;bottom=0;right=0;editable=1;overflow=hidden;" vertex="1" parent="Kvx0y5qpQ8pPeSfQFmkm-78">
          <mxGeometry width="30" height="30" as="geometry" />
        </mxCell>
        <mxCell id="Kvx0y5qpQ8pPeSfQFmkm-80" value="depId" style="shape=partialRectangle;connectable=0;fillColor=none;top=0;left=0;bottom=0;right=0;align=left;spacingLeft=6;overflow=hidden;" vertex="1" parent="Kvx0y5qpQ8pPeSfQFmkm-78">
          <mxGeometry x="30" width="150" height="30" as="geometry" />
        </mxCell>
        <mxCell id="Kvx0y5qpQ8pPeSfQFmkm-65" value="Skill" style="shape=table;startSize=30;container=1;collapsible=1;childLayout=tableLayout;fixedRows=1;rowLines=0;fontStyle=1;align=center;resizeLast=1;" vertex="1" parent="1">
          <mxGeometry x="580" y="195" width="180" height="100" as="geometry" />
        </mxCell>
        <mxCell id="Kvx0y5qpQ8pPeSfQFmkm-66" value="" style="shape=partialRectangle;collapsible=0;dropTarget=0;pointerEvents=0;fillColor=none;top=0;left=0;bottom=1;right=0;points=[[0,0.5],[1,0.5]];portConstraint=eastwest;" vertex="1" parent="Kvx0y5qpQ8pPeSfQFmkm-65">
          <mxGeometry y="30" width="180" height="30" as="geometry" />
        </mxCell>
        <mxCell id="Kvx0y5qpQ8pPeSfQFmkm-67" value="PK" style="shape=partialRectangle;connectable=0;fillColor=none;top=0;left=0;bottom=0;right=0;fontStyle=1;overflow=hidden;" vertex="1" parent="Kvx0y5qpQ8pPeSfQFmkm-66">
          <mxGeometry width="30" height="30" as="geometry" />
        </mxCell>
        <mxCell id="Kvx0y5qpQ8pPeSfQFmkm-68" value="skillId" style="shape=partialRectangle;connectable=0;fillColor=none;top=0;left=0;bottom=0;right=0;align=left;spacingLeft=6;fontStyle=5;overflow=hidden;" vertex="1" parent="Kvx0y5qpQ8pPeSfQFmkm-66">
          <mxGeometry x="30" width="150" height="30" as="geometry" />
        </mxCell>
        <mxCell id="Kvx0y5qpQ8pPeSfQFmkm-69" value="" style="shape=partialRectangle;collapsible=0;dropTarget=0;pointerEvents=0;fillColor=none;top=0;left=0;bottom=0;right=0;points=[[0,0.5],[1,0.5]];portConstraint=eastwest;" vertex="1" parent="Kvx0y5qpQ8pPeSfQFmkm-65">
          <mxGeometry y="60" width="180" height="30" as="geometry" />
        </mxCell>
        <mxCell id="Kvx0y5qpQ8pPeSfQFmkm-70" value="" style="shape=partialRectangle;connectable=0;fillColor=none;top=0;left=0;bottom=0;right=0;editable=1;overflow=hidden;" vertex="1" parent="Kvx0y5qpQ8pPeSfQFmkm-69">
          <mxGeometry width="30" height="30" as="geometry" />
        </mxCell>
        <mxCell id="Kvx0y5qpQ8pPeSfQFmkm-71" value="skillDescription" style="shape=partialRectangle;connectable=0;fillColor=none;top=0;left=0;bottom=0;right=0;align=left;spacingLeft=6;overflow=hidden;" vertex="1" parent="Kvx0y5qpQ8pPeSfQFmkm-69">
          <mxGeometry x="30" width="150" height="30" as="geometry" />
        </mxCell>
      </root>
    </mxGraphModel>
  </diagram>
</mxfile>
